<?xml version="1.0" encoding="iso-8859-1"?>
<!-- Generator: Adobe Illustrator 18.1.1, SVG Export Plug-In . SVG Version: 6.00 Build 0)  -->
<svg version="1.1" id="Capa_1" xmlns="http://www.w3.org/2000/svg" xmlns:xlink="http://www.w3.org/1999/xlink" x="0px" y="0px"
	 viewBox="0 0 496.605 496.605" style="enable-background:new 0 0 496.605 496.605;" xml:space="preserve">
<g>
	<g>
		<rect x="227.517" y="0" style="fill:#010002;" width="41.509" height="47.744"/>
		<path style="fill:#010002;" d="M269.045,401.369V192.668h-41.507v208.701c-35.701,5.242-61.438,23.918-61.438,46.814
			c0,27.178,36.119,48.422,82.223,48.422c46.083,0,82.183-21.244,82.183-48.422C330.483,425.287,304.768,406.612,269.045,401.369z
			 M248.282,482.819c-37.059,0-68.373-15.834-68.373-34.594c0-2.318,0.648-4.596,1.566-6.789
			c6.644,15.48,34.51,27.512,66.828,27.512c32.272,0,60.14-12.031,66.827-27.488c0.92,2.213,1.523,4.447,1.523,6.768
			C316.655,466.985,285.34,482.819,248.282,482.819z"/>
		<path style="fill:#010002;" d="M426.797,114.816l-41.193-41.884c-1.432-1.456-3.387-2.276-5.43-2.276H75.239
			c-3.191,0-6.044,1.989-7.146,4.984c-1.103,2.994-0.222,6.358,2.207,8.428l42.352,36.088L70.3,156.243
			c-2.429,2.07-3.31,5.435-2.207,8.429s3.956,4.983,7.146,4.983h304.935c2.043,0,3.998-0.82,5.43-2.276l41.193-41.884
			C429.711,122.532,429.711,117.779,426.797,114.816z"/>
	</g>
</g>
<g>
</g>
<g>
</g>
<g>
</g>
<g>
</g>
<g>
</g>
<g>
</g>
<g>
</g>
<g>
</g>
<g>
</g>
<g>
</g>
<g>
</g>
<g>
</g>
<g>
</g>
<g>
</g>
<g>
</g>
</svg>
