<?xml version="1.0" encoding="iso-8859-1"?>
<!-- Generator: Adobe Illustrator 18.1.1, SVG Export Plug-In . SVG Version: 6.00 Build 0)  -->
<svg version="1.1" id="Capa_1" xmlns="http://www.w3.org/2000/svg" xmlns:xlink="http://www.w3.org/1999/xlink" x="0px" y="0px"
	 viewBox="0 0 543.906 543.906" style="enable-background:new 0 0 543.906 543.906;" xml:space="preserve">
<g>
	<g>
		<path style="fill:#010002;" d="M0,92.464v21.756v315.466v21.756h543.906v-21.756V114.22V92.464H0z M225.041,147.192
			c4.988-9.127,11.863-16.002,20.565-20.565c8.681-4.607,18.547-6.967,29.746-6.967c9.453,0,17.943,1.931,25.324,5.608
			c7.381,3.726,12.918,8.98,16.828,15.806c3.867,6.821,5.95,14.201,5.95,22.268c0,9.616-2.943,18.205-8.838,26.004
			c-7.424,9.79-16.959,14.789-28.555,14.789c-3.111,0-5.548-0.587-7.136-1.697c-1.566-1.11-2.551-2.633-3.057-4.759
			c-4.417,4.297-9.513,6.462-15.295,6.462c-6.249,0-11.531-2.159-15.637-6.462c-4.106-4.34-6.119-10.204-6.119-17.34
			c0-8.904,2.339-16.828,7.31-24.139c6.027-8.904,13.706-13.429,23.116-13.429c6.69,0,11.776,2.507,14.957,7.647l1.36-6.119h14.957
			l-8.496,40.456c-0.533,2.567-0.848,4.177-0.848,4.928c0,0.979,0.245,1.724,0.68,2.208c0.419,0.484,0.936,0.68,1.528,0.68
			c1.833,0,4.123-1.012,6.967-3.231c3.845-2.834,6.989-6.777,9.35-11.558c2.382-4.83,3.568-9.948,3.568-15.126
			c0-9.257-3.334-16.997-10.03-23.285c-6.712-6.206-16.051-9.35-28.044-9.35c-10.204,0-18.743,2.078-25.836,6.288
			c-7.065,4.123-12.499,10.1-16.149,17.677c-3.579,7.528-5.27,15.425-5.27,23.627c0,7.93,1.806,15.246,5.776,21.756
			c4.041,6.56,9.774,11.096,16.997,14.109c7.245,2.97,15.496,4.591,24.813,4.591c8.969,0,16.796-1.213,23.285-3.742
			c6.467-2.524,11.683-6.342,15.637-11.389h11.895c-3.747,7.664-9.562,13.63-17.34,18.014c-8.92,4.971-19.673,7.49-32.46,7.49
			c-12.439,0-23.285-2.078-32.297-6.288c-9.056-4.21-15.637-10.329-20.059-18.525c-4.389-8.197-6.625-17.198-6.625-26.858
			C217.557,166.185,220.026,156.368,225.041,147.192z M522.15,127.649L358.81,266.683L522.15,420.505v9.181h-21.925L342.15,280.96
			l-70.197,59.661l-70.197-59.661L43.681,429.686H21.756v-9.181l163.341-153.822L21.756,127.649V114.22h17.846l232.351,197.846
			L504.305,114.22h17.846V127.649z"/>
		<path style="fill:#010002;" d="M270.762,152.974c-3.225,0-6.418,1.213-9.181,3.742c-2.741,2.524-4.727,6.054-6.119,10.71
			c-1.392,4.656-2.04,8.817-2.04,12.406c0,4.786,0.968,8.278,2.888,10.541c1.969,2.263,4.27,3.399,7.136,3.399
			c2.143,0,4.237-0.468,6.119-1.528c1.436-0.756,2.856-2.143,4.248-3.742c1.985-2.301,3.666-5.597,5.102-10.03
			c1.441-4.389,2.208-8.425,2.208-12.238c0-4.253-1.072-7.598-3.057-9.856C276.109,154.072,273.764,152.974,270.762,152.974z"/>
	</g>
</g>
<g>
</g>
<g>
</g>
<g>
</g>
<g>
</g>
<g>
</g>
<g>
</g>
<g>
</g>
<g>
</g>
<g>
</g>
<g>
</g>
<g>
</g>
<g>
</g>
<g>
</g>
<g>
</g>
<g>
</g>
</svg>
